<?xml version="1.0" encoding="utf-8"?>
<svg xmlns="http://www.w3.org/2000/svg" xmlns:xlink="http://www.w3.org/1999/xlink" width="600" height="400" viewBox="0 0 2400 1600">
<defs>
  <clipPath id="clip330">
    <rect x="0" y="0" width="2400" height="1600"/>
  </clipPath>
</defs>
<path clip-path="url(#clip330)" d="
M0 1600 L2400 1600 L2400 0 L0 0  Z
  " fill="#ffffff" fill-rule="evenodd" fill-opacity="1"/>
<defs>
  <clipPath id="clip331">
    <rect x="480" y="0" width="1681" height="1600"/>
  </clipPath>
</defs>
<path clip-path="url(#clip330)" d="
M265.445 1423.18 L2352.76 1423.18 L2352.76 123.472 L265.445 123.472  Z
  " fill="#ffffff" fill-rule="evenodd" fill-opacity="1"/>
<defs>
  <clipPath id="clip332">
    <rect x="265" y="123" width="2088" height="1301"/>
  </clipPath>
</defs>
<polyline clip-path="url(#clip332)" style="stroke:#000000; stroke-linecap:butt; stroke-linejoin:round; stroke-width:2; stroke-opacity:0.1; fill:none" points="
  475.994,1423.18 475.994,123.472 
  "/>
<polyline clip-path="url(#clip332)" style="stroke:#000000; stroke-linecap:butt; stroke-linejoin:round; stroke-width:2; stroke-opacity:0.1; fill:none" points="
  778.941,1423.18 778.941,123.472 
  "/>
<polyline clip-path="url(#clip332)" style="stroke:#000000; stroke-linecap:butt; stroke-linejoin:round; stroke-width:2; stroke-opacity:0.1; fill:none" points="
  1081.89,1423.18 1081.89,123.472 
  "/>
<polyline clip-path="url(#clip332)" style="stroke:#000000; stroke-linecap:butt; stroke-linejoin:round; stroke-width:2; stroke-opacity:0.1; fill:none" points="
  1384.84,1423.18 1384.84,123.472 
  "/>
<polyline clip-path="url(#clip332)" style="stroke:#000000; stroke-linecap:butt; stroke-linejoin:round; stroke-width:2; stroke-opacity:0.1; fill:none" points="
  1687.79,1423.18 1687.79,123.472 
  "/>
<polyline clip-path="url(#clip332)" style="stroke:#000000; stroke-linecap:butt; stroke-linejoin:round; stroke-width:2; stroke-opacity:0.1; fill:none" points="
  1990.73,1423.18 1990.73,123.472 
  "/>
<polyline clip-path="url(#clip332)" style="stroke:#000000; stroke-linecap:butt; stroke-linejoin:round; stroke-width:2; stroke-opacity:0.1; fill:none" points="
  2293.68,1423.18 2293.68,123.472 
  "/>
<polyline clip-path="url(#clip330)" style="stroke:#000000; stroke-linecap:butt; stroke-linejoin:round; stroke-width:4; stroke-opacity:1; fill:none" points="
  265.445,1423.18 2352.76,1423.18 
  "/>
<polyline clip-path="url(#clip330)" style="stroke:#000000; stroke-linecap:butt; stroke-linejoin:round; stroke-width:4; stroke-opacity:1; fill:none" points="
  475.994,1423.18 475.994,1404.28 
  "/>
<polyline clip-path="url(#clip330)" style="stroke:#000000; stroke-linecap:butt; stroke-linejoin:round; stroke-width:4; stroke-opacity:1; fill:none" points="
  778.941,1423.18 778.941,1404.28 
  "/>
<polyline clip-path="url(#clip330)" style="stroke:#000000; stroke-linecap:butt; stroke-linejoin:round; stroke-width:4; stroke-opacity:1; fill:none" points="
  1081.89,1423.18 1081.89,1404.28 
  "/>
<polyline clip-path="url(#clip330)" style="stroke:#000000; stroke-linecap:butt; stroke-linejoin:round; stroke-width:4; stroke-opacity:1; fill:none" points="
  1384.84,1423.18 1384.84,1404.28 
  "/>
<polyline clip-path="url(#clip330)" style="stroke:#000000; stroke-linecap:butt; stroke-linejoin:round; stroke-width:4; stroke-opacity:1; fill:none" points="
  1687.79,1423.18 1687.79,1404.28 
  "/>
<polyline clip-path="url(#clip330)" style="stroke:#000000; stroke-linecap:butt; stroke-linejoin:round; stroke-width:4; stroke-opacity:1; fill:none" points="
  1990.73,1423.18 1990.73,1404.28 
  "/>
<polyline clip-path="url(#clip330)" style="stroke:#000000; stroke-linecap:butt; stroke-linejoin:round; stroke-width:4; stroke-opacity:1; fill:none" points="
  2293.68,1423.18 2293.68,1404.28 
  "/>
<path clip-path="url(#clip330)" d="M476.399 1466.44 Q473.25 1466.44 471.399 1468.59 Q469.57 1470.74 469.57 1474.49 Q469.57 1478.22 471.399 1480.39 Q473.25 1482.55 476.399 1482.55 Q479.547 1482.55 481.375 1480.39 Q483.227 1478.22 483.227 1474.49 Q483.227 1470.74 481.375 1468.59 Q479.547 1466.44 476.399 1466.44 M485.681 1451.78 L485.681 1456.04 Q483.922 1455.21 482.116 1454.77 Q480.334 1454.33 478.575 1454.33 Q473.945 1454.33 471.491 1457.45 Q469.061 1460.58 468.713 1466.9 Q470.079 1464.89 472.139 1463.82 Q474.2 1462.73 476.676 1462.73 Q481.885 1462.73 484.894 1465.9 Q487.926 1469.05 487.926 1474.49 Q487.926 1479.82 484.778 1483.03 Q481.63 1486.25 476.399 1486.25 Q470.403 1486.25 467.232 1481.67 Q464.061 1477.06 464.061 1468.33 Q464.061 1460.14 467.95 1455.28 Q471.838 1450.39 478.389 1450.39 Q480.149 1450.39 481.931 1450.74 Q483.737 1451.09 485.681 1451.78 Z" fill="#000000" fill-rule="evenodd" fill-opacity="1" /><path clip-path="url(#clip330)" d="M778.941 1469.17 Q775.608 1469.17 773.687 1470.95 Q771.789 1472.73 771.789 1475.86 Q771.789 1478.98 773.687 1480.77 Q775.608 1482.55 778.941 1482.55 Q782.275 1482.55 784.196 1480.77 Q786.117 1478.96 786.117 1475.86 Q786.117 1472.73 784.196 1470.95 Q782.298 1469.17 778.941 1469.17 M774.266 1467.18 Q771.256 1466.44 769.567 1464.38 Q767.9 1462.32 767.9 1459.35 Q767.9 1455.21 770.84 1452.8 Q773.803 1450.39 778.941 1450.39 Q784.103 1450.39 787.043 1452.8 Q789.983 1455.21 789.983 1459.35 Q789.983 1462.32 788.293 1464.38 Q786.627 1466.44 783.641 1467.18 Q787.02 1467.96 788.895 1470.26 Q790.793 1472.55 790.793 1475.86 Q790.793 1480.88 787.715 1483.57 Q784.659 1486.25 778.941 1486.25 Q773.224 1486.25 770.145 1483.57 Q767.09 1480.88 767.09 1475.86 Q767.09 1472.55 768.988 1470.26 Q770.886 1467.96 774.266 1467.18 M772.553 1459.79 Q772.553 1462.48 774.219 1463.98 Q775.909 1465.49 778.941 1465.49 Q781.951 1465.49 783.641 1463.98 Q785.353 1462.48 785.353 1459.79 Q785.353 1457.11 783.641 1455.6 Q781.951 1454.1 778.941 1454.1 Q775.909 1454.1 774.219 1455.6 Q772.553 1457.11 772.553 1459.79 Z" fill="#000000" fill-rule="evenodd" fill-opacity="1" /><path clip-path="url(#clip330)" d="M1056.58 1481.64 L1064.22 1481.64 L1064.22 1455.28 L1055.91 1456.95 L1055.91 1452.69 L1064.17 1451.02 L1068.85 1451.02 L1068.85 1481.64 L1076.48 1481.64 L1076.48 1485.58 L1056.58 1485.58 L1056.58 1481.64 Z" fill="#000000" fill-rule="evenodd" fill-opacity="1" /><path clip-path="url(#clip330)" d="M1095.93 1454.1 Q1092.32 1454.1 1090.49 1457.66 Q1088.68 1461.2 1088.68 1468.33 Q1088.68 1475.44 1090.49 1479.01 Q1092.32 1482.55 1095.93 1482.55 Q1099.56 1482.55 1101.37 1479.01 Q1103.2 1475.44 1103.2 1468.33 Q1103.2 1461.2 1101.37 1457.66 Q1099.56 1454.1 1095.93 1454.1 M1095.93 1450.39 Q1101.74 1450.39 1104.79 1455 Q1107.87 1459.58 1107.87 1468.33 Q1107.87 1477.06 1104.79 1481.67 Q1101.74 1486.25 1095.93 1486.25 Q1090.12 1486.25 1087.04 1481.67 Q1083.98 1477.06 1083.98 1468.33 Q1083.98 1459.58 1087.04 1455 Q1090.12 1450.39 1095.93 1450.39 Z" fill="#000000" fill-rule="evenodd" fill-opacity="1" /><path clip-path="url(#clip330)" d="M1360.32 1481.64 L1367.96 1481.64 L1367.96 1455.28 L1359.65 1456.95 L1359.65 1452.69 L1367.92 1451.02 L1372.59 1451.02 L1372.59 1481.64 L1380.23 1481.64 L1380.23 1485.58 L1360.32 1485.58 L1360.32 1481.64 Z" fill="#000000" fill-rule="evenodd" fill-opacity="1" /><path clip-path="url(#clip330)" d="M1393.7 1481.64 L1410.02 1481.64 L1410.02 1485.58 L1388.08 1485.58 L1388.08 1481.64 Q1390.74 1478.89 1395.32 1474.26 Q1399.93 1469.61 1401.11 1468.27 Q1403.36 1465.74 1404.24 1464.01 Q1405.14 1462.25 1405.14 1460.56 Q1405.14 1457.8 1403.19 1456.07 Q1401.27 1454.33 1398.17 1454.33 Q1395.97 1454.33 1393.52 1455.09 Q1391.09 1455.86 1388.31 1457.41 L1388.31 1452.69 Q1391.13 1451.55 1393.59 1450.97 Q1396.04 1450.39 1398.08 1450.39 Q1403.45 1450.39 1406.64 1453.08 Q1409.84 1455.77 1409.84 1460.26 Q1409.84 1462.39 1409.03 1464.31 Q1408.24 1466.2 1406.13 1468.8 Q1405.55 1469.47 1402.45 1472.69 Q1399.35 1475.88 1393.7 1481.64 Z" fill="#000000" fill-rule="evenodd" fill-opacity="1" /><path clip-path="url(#clip330)" d="M1662.23 1481.64 L1669.87 1481.64 L1669.87 1455.28 L1661.56 1456.95 L1661.56 1452.69 L1669.82 1451.02 L1674.5 1451.02 L1674.5 1481.64 L1682.14 1481.64 L1682.14 1485.58 L1662.23 1485.58 L1662.23 1481.64 Z" fill="#000000" fill-rule="evenodd" fill-opacity="1" /><path clip-path="url(#clip330)" d="M1704.43 1455.09 L1692.62 1473.54 L1704.43 1473.54 L1704.43 1455.09 M1703.2 1451.02 L1709.08 1451.02 L1709.08 1473.54 L1714.01 1473.54 L1714.01 1477.43 L1709.08 1477.43 L1709.08 1485.58 L1704.43 1485.58 L1704.43 1477.43 L1688.83 1477.43 L1688.83 1472.92 L1703.2 1451.02 Z" fill="#000000" fill-rule="evenodd" fill-opacity="1" /><path clip-path="url(#clip330)" d="M1965.34 1481.64 L1972.98 1481.64 L1972.98 1455.28 L1964.67 1456.95 L1964.67 1452.69 L1972.93 1451.02 L1977.61 1451.02 L1977.61 1481.64 L1985.25 1481.64 L1985.25 1485.58 L1965.34 1485.58 L1965.34 1481.64 Z" fill="#000000" fill-rule="evenodd" fill-opacity="1" /><path clip-path="url(#clip330)" d="M2005.27 1466.44 Q2002.12 1466.44 2000.27 1468.59 Q1998.44 1470.74 1998.44 1474.49 Q1998.44 1478.22 2000.27 1480.39 Q2002.12 1482.55 2005.27 1482.55 Q2008.42 1482.55 2010.25 1480.39 Q2012.1 1478.22 2012.1 1474.49 Q2012.1 1470.74 2010.25 1468.59 Q2008.42 1466.44 2005.27 1466.44 M2014.55 1451.78 L2014.55 1456.04 Q2012.79 1455.21 2010.99 1454.77 Q2009.21 1454.33 2007.45 1454.33 Q2002.82 1454.33 2000.36 1457.45 Q1997.93 1460.58 1997.58 1466.9 Q1998.95 1464.89 2001.01 1463.82 Q2003.07 1462.73 2005.55 1462.73 Q2010.76 1462.73 2013.77 1465.9 Q2016.8 1469.05 2016.8 1474.49 Q2016.8 1479.82 2013.65 1483.03 Q2010.5 1486.25 2005.27 1486.25 Q1999.27 1486.25 1996.1 1481.67 Q1992.93 1477.06 1992.93 1468.33 Q1992.93 1460.14 1996.82 1455.28 Q2000.71 1450.39 2007.26 1450.39 Q2009.02 1450.39 2010.8 1450.74 Q2012.61 1451.09 2014.55 1451.78 Z" fill="#000000" fill-rule="evenodd" fill-opacity="1" /><path clip-path="url(#clip330)" d="M2268.41 1481.64 L2276.05 1481.64 L2276.05 1455.28 L2267.74 1456.95 L2267.74 1452.69 L2276.01 1451.02 L2280.68 1451.02 L2280.68 1481.64 L2288.32 1481.64 L2288.32 1485.58 L2268.41 1485.58 L2268.41 1481.64 Z" fill="#000000" fill-rule="evenodd" fill-opacity="1" /><path clip-path="url(#clip330)" d="M2307.77 1469.17 Q2304.43 1469.17 2302.51 1470.95 Q2300.61 1472.73 2300.61 1475.86 Q2300.61 1478.98 2302.51 1480.77 Q2304.43 1482.55 2307.77 1482.55 Q2311.1 1482.55 2313.02 1480.77 Q2314.94 1478.96 2314.94 1475.86 Q2314.94 1472.73 2313.02 1470.95 Q2311.12 1469.17 2307.77 1469.17 M2303.09 1467.18 Q2300.08 1466.44 2298.39 1464.38 Q2296.73 1462.32 2296.73 1459.35 Q2296.73 1455.21 2299.66 1452.8 Q2302.63 1450.39 2307.77 1450.39 Q2312.93 1450.39 2315.87 1452.8 Q2318.81 1455.21 2318.81 1459.35 Q2318.81 1462.32 2317.12 1464.38 Q2315.45 1466.44 2312.47 1467.18 Q2315.85 1467.96 2317.72 1470.26 Q2319.62 1472.55 2319.62 1475.86 Q2319.62 1480.88 2316.54 1483.57 Q2313.48 1486.25 2307.77 1486.25 Q2302.05 1486.25 2298.97 1483.57 Q2295.91 1480.88 2295.91 1475.86 Q2295.91 1472.55 2297.81 1470.26 Q2299.71 1467.96 2303.09 1467.18 M2301.38 1459.79 Q2301.38 1462.48 2303.04 1463.98 Q2304.73 1465.49 2307.77 1465.49 Q2310.78 1465.49 2312.47 1463.98 Q2314.18 1462.48 2314.18 1459.79 Q2314.18 1457.11 2312.47 1455.6 Q2310.78 1454.1 2307.77 1454.1 Q2304.73 1454.1 2303.04 1455.6 Q2301.38 1457.11 2301.38 1459.79 Z" fill="#000000" fill-rule="evenodd" fill-opacity="1" /><path clip-path="url(#clip330)" d="M1234.35 1522.27 L1234.35 1532.4 L1246.41 1532.4 L1246.41 1536.95 L1234.35 1536.95 L1234.35 1556.3 Q1234.35 1560.66 1235.53 1561.9 Q1236.74 1563.14 1240.4 1563.14 L1246.41 1563.14 L1246.41 1568.04 L1240.4 1568.04 Q1233.62 1568.04 1231.04 1565.53 Q1228.46 1562.98 1228.46 1556.3 L1228.46 1536.95 L1224.17 1536.95 L1224.17 1532.4 L1228.46 1532.4 L1228.46 1522.27 L1234.35 1522.27 Z" fill="#000000" fill-rule="evenodd" fill-opacity="1" /><path clip-path="url(#clip330)" d="M1254.12 1532.4 L1259.97 1532.4 L1259.97 1568.04 L1254.12 1568.04 L1254.12 1532.4 M1254.12 1518.52 L1259.97 1518.52 L1259.97 1525.93 L1254.12 1525.93 L1254.12 1518.52 Z" fill="#000000" fill-rule="evenodd" fill-opacity="1" /><path clip-path="url(#clip330)" d="M1295.68 1537.81 L1295.68 1518.52 L1301.54 1518.52 L1301.54 1568.04 L1295.68 1568.04 L1295.68 1562.7 Q1293.84 1565.88 1291.01 1567.44 Q1288.2 1568.97 1284.26 1568.97 Q1277.8 1568.97 1273.72 1563.81 Q1269.68 1558.65 1269.68 1550.25 Q1269.68 1541.85 1273.72 1536.69 Q1277.8 1531.54 1284.26 1531.54 Q1288.2 1531.54 1291.01 1533.1 Q1293.84 1534.62 1295.68 1537.81 M1275.73 1550.25 Q1275.73 1556.71 1278.37 1560.4 Q1281.04 1564.07 1285.69 1564.07 Q1290.34 1564.07 1293.01 1560.4 Q1295.68 1556.71 1295.68 1550.25 Q1295.68 1543.79 1293.01 1540.13 Q1290.34 1536.44 1285.69 1536.44 Q1281.04 1536.44 1278.37 1540.13 Q1275.73 1543.79 1275.73 1550.25 Z" fill="#000000" fill-rule="evenodd" fill-opacity="1" /><path clip-path="url(#clip330)" d="M1313.06 1518.52 L1326.56 1518.52 L1326.56 1523.07 L1318.92 1523.07 L1318.92 1572.09 L1326.56 1572.09 L1326.56 1576.64 L1313.06 1576.64 L1313.06 1518.52 Z" fill="#000000" fill-rule="evenodd" fill-opacity="1" /><path clip-path="url(#clip330)" d="M1368.67 1546.53 L1368.67 1568.04 L1362.81 1568.04 L1362.81 1546.72 Q1362.81 1541.66 1360.84 1539.14 Q1358.86 1536.63 1354.92 1536.63 Q1350.18 1536.63 1347.44 1539.65 Q1344.7 1542.68 1344.7 1547.9 L1344.7 1568.04 L1338.81 1568.04 L1338.81 1518.52 L1344.7 1518.52 L1344.7 1537.93 Q1346.8 1534.72 1349.63 1533.13 Q1352.5 1531.54 1356.22 1531.54 Q1362.37 1531.54 1365.52 1535.36 Q1368.67 1539.14 1368.67 1546.53 Z" fill="#000000" fill-rule="evenodd" fill-opacity="1" /><path clip-path="url(#clip330)" d="M1394.03 1518.52 L1394.03 1576.64 L1380.54 1576.64 L1380.54 1572.09 L1388.15 1572.09 L1388.15 1523.07 L1380.54 1523.07 L1380.54 1518.52 L1394.03 1518.52 Z" fill="#000000" fill-rule="evenodd" fill-opacity="1" /><polyline clip-path="url(#clip332)" style="stroke:#000000; stroke-linecap:butt; stroke-linejoin:round; stroke-width:2; stroke-opacity:0.1; fill:none" points="
  265.445,1386.4 2352.76,1386.4 
  "/>
<polyline clip-path="url(#clip332)" style="stroke:#000000; stroke-linecap:butt; stroke-linejoin:round; stroke-width:2; stroke-opacity:0.1; fill:none" points="
  265.445,1161.99 2352.76,1161.99 
  "/>
<polyline clip-path="url(#clip332)" style="stroke:#000000; stroke-linecap:butt; stroke-linejoin:round; stroke-width:2; stroke-opacity:0.1; fill:none" points="
  265.445,937.586 2352.76,937.586 
  "/>
<polyline clip-path="url(#clip332)" style="stroke:#000000; stroke-linecap:butt; stroke-linejoin:round; stroke-width:2; stroke-opacity:0.1; fill:none" points="
  265.445,713.181 2352.76,713.181 
  "/>
<polyline clip-path="url(#clip332)" style="stroke:#000000; stroke-linecap:butt; stroke-linejoin:round; stroke-width:2; stroke-opacity:0.1; fill:none" points="
  265.445,488.776 2352.76,488.776 
  "/>
<polyline clip-path="url(#clip332)" style="stroke:#000000; stroke-linecap:butt; stroke-linejoin:round; stroke-width:2; stroke-opacity:0.1; fill:none" points="
  265.445,264.372 2352.76,264.372 
  "/>
<polyline clip-path="url(#clip330)" style="stroke:#000000; stroke-linecap:butt; stroke-linejoin:round; stroke-width:4; stroke-opacity:1; fill:none" points="
  265.445,1423.18 265.445,123.472 
  "/>
<polyline clip-path="url(#clip330)" style="stroke:#000000; stroke-linecap:butt; stroke-linejoin:round; stroke-width:4; stroke-opacity:1; fill:none" points="
  265.445,1386.4 284.342,1386.4 
  "/>
<polyline clip-path="url(#clip330)" style="stroke:#000000; stroke-linecap:butt; stroke-linejoin:round; stroke-width:4; stroke-opacity:1; fill:none" points="
  265.445,1161.99 284.342,1161.99 
  "/>
<polyline clip-path="url(#clip330)" style="stroke:#000000; stroke-linecap:butt; stroke-linejoin:round; stroke-width:4; stroke-opacity:1; fill:none" points="
  265.445,937.586 284.342,937.586 
  "/>
<polyline clip-path="url(#clip330)" style="stroke:#000000; stroke-linecap:butt; stroke-linejoin:round; stroke-width:4; stroke-opacity:1; fill:none" points="
  265.445,713.181 284.342,713.181 
  "/>
<polyline clip-path="url(#clip330)" style="stroke:#000000; stroke-linecap:butt; stroke-linejoin:round; stroke-width:4; stroke-opacity:1; fill:none" points="
  265.445,488.776 284.342,488.776 
  "/>
<polyline clip-path="url(#clip330)" style="stroke:#000000; stroke-linecap:butt; stroke-linejoin:round; stroke-width:4; stroke-opacity:1; fill:none" points="
  265.445,264.372 284.342,264.372 
  "/>
<path clip-path="url(#clip330)" d="M217.5 1372.19 Q213.889 1372.19 212.061 1375.76 Q210.255 1379.3 210.255 1386.43 Q210.255 1393.54 212.061 1397.1 Q213.889 1400.64 217.5 1400.64 Q221.135 1400.64 222.94 1397.1 Q224.769 1393.54 224.769 1386.43 Q224.769 1379.3 222.94 1375.76 Q221.135 1372.19 217.5 1372.19 M217.5 1368.49 Q223.31 1368.49 226.366 1373.1 Q229.445 1377.68 229.445 1386.43 Q229.445 1395.16 226.366 1399.76 Q223.31 1404.35 217.5 1404.35 Q211.69 1404.35 208.612 1399.76 Q205.556 1395.16 205.556 1386.43 Q205.556 1377.68 208.612 1373.1 Q211.69 1368.49 217.5 1368.49 Z" fill="#000000" fill-rule="evenodd" fill-opacity="1" /><path clip-path="url(#clip330)" d="M117.825 1175.34 L125.464 1175.34 L125.464 1148.97 L117.154 1150.64 L117.154 1146.38 L125.418 1144.71 L130.093 1144.71 L130.093 1175.34 L137.732 1175.34 L137.732 1179.27 L117.825 1179.27 L117.825 1175.34 Z" fill="#000000" fill-rule="evenodd" fill-opacity="1" /><path clip-path="url(#clip330)" d="M157.177 1147.79 Q153.566 1147.79 151.737 1151.35 Q149.931 1154.9 149.931 1162.03 Q149.931 1169.13 151.737 1172.7 Q153.566 1176.24 157.177 1176.24 Q160.811 1176.24 162.616 1172.7 Q164.445 1169.13 164.445 1162.03 Q164.445 1154.9 162.616 1151.35 Q160.811 1147.79 157.177 1147.79 M157.177 1144.09 Q162.987 1144.09 166.042 1148.69 Q169.121 1153.28 169.121 1162.03 Q169.121 1170.75 166.042 1175.36 Q162.987 1179.94 157.177 1179.94 Q151.366 1179.94 148.288 1175.36 Q145.232 1170.75 145.232 1162.03 Q145.232 1153.28 148.288 1148.69 Q151.366 1144.09 157.177 1144.09 Z" fill="#000000" fill-rule="evenodd" fill-opacity="1" /><path clip-path="url(#clip330)" d="M187.338 1147.79 Q183.727 1147.79 181.899 1151.35 Q180.093 1154.9 180.093 1162.03 Q180.093 1169.13 181.899 1172.7 Q183.727 1176.24 187.338 1176.24 Q190.973 1176.24 192.778 1172.7 Q194.607 1169.13 194.607 1162.03 Q194.607 1154.9 192.778 1151.35 Q190.973 1147.79 187.338 1147.79 M187.338 1144.09 Q193.149 1144.09 196.204 1148.69 Q199.283 1153.28 199.283 1162.03 Q199.283 1170.75 196.204 1175.36 Q193.149 1179.94 187.338 1179.94 Q181.528 1179.94 178.45 1175.36 Q175.394 1170.75 175.394 1162.03 Q175.394 1153.28 178.45 1148.69 Q181.528 1144.09 187.338 1144.09 Z" fill="#000000" fill-rule="evenodd" fill-opacity="1" /><path clip-path="url(#clip330)" d="M217.5 1147.79 Q213.889 1147.79 212.061 1151.35 Q210.255 1154.9 210.255 1162.03 Q210.255 1169.13 212.061 1172.7 Q213.889 1176.24 217.5 1176.24 Q221.135 1176.24 222.94 1172.7 Q224.769 1169.13 224.769 1162.03 Q224.769 1154.9 222.94 1151.35 Q221.135 1147.79 217.5 1147.79 M217.5 1144.09 Q223.31 1144.09 226.366 1148.69 Q229.445 1153.28 229.445 1162.03 Q229.445 1170.75 226.366 1175.36 Q223.31 1179.94 217.5 1179.94 Q211.69 1179.94 208.612 1175.36 Q205.556 1170.75 205.556 1162.03 Q205.556 1153.28 208.612 1148.69 Q211.69 1144.09 217.5 1144.09 Z" fill="#000000" fill-rule="evenodd" fill-opacity="1" /><path clip-path="url(#clip330)" d="M121.043 950.931 L137.362 950.931 L137.362 954.866 L115.418 954.866 L115.418 950.931 Q118.08 948.176 122.663 943.547 Q127.269 938.894 128.45 937.551 Q130.695 935.028 131.575 933.292 Q132.478 931.533 132.478 929.843 Q132.478 927.088 130.533 925.352 Q128.612 923.616 125.51 923.616 Q123.311 923.616 120.857 924.38 Q118.427 925.144 115.649 926.695 L115.649 921.973 Q118.473 920.838 120.927 920.26 Q123.38 919.681 125.418 919.681 Q130.788 919.681 133.982 922.366 Q137.177 925.051 137.177 929.542 Q137.177 931.672 136.367 933.593 Q135.579 935.491 133.473 938.084 Q132.894 938.755 129.792 941.973 Q126.691 945.167 121.043 950.931 Z" fill="#000000" fill-rule="evenodd" fill-opacity="1" /><path clip-path="url(#clip330)" d="M157.177 923.385 Q153.566 923.385 151.737 926.95 Q149.931 930.491 149.931 937.621 Q149.931 944.727 151.737 948.292 Q153.566 951.834 157.177 951.834 Q160.811 951.834 162.616 948.292 Q164.445 944.727 164.445 937.621 Q164.445 930.491 162.616 926.95 Q160.811 923.385 157.177 923.385 M157.177 919.681 Q162.987 919.681 166.042 924.287 Q169.121 928.871 169.121 937.621 Q169.121 946.348 166.042 950.954 Q162.987 955.537 157.177 955.537 Q151.366 955.537 148.288 950.954 Q145.232 946.348 145.232 937.621 Q145.232 928.871 148.288 924.287 Q151.366 919.681 157.177 919.681 Z" fill="#000000" fill-rule="evenodd" fill-opacity="1" /><path clip-path="url(#clip330)" d="M187.338 923.385 Q183.727 923.385 181.899 926.95 Q180.093 930.491 180.093 937.621 Q180.093 944.727 181.899 948.292 Q183.727 951.834 187.338 951.834 Q190.973 951.834 192.778 948.292 Q194.607 944.727 194.607 937.621 Q194.607 930.491 192.778 926.95 Q190.973 923.385 187.338 923.385 M187.338 919.681 Q193.149 919.681 196.204 924.287 Q199.283 928.871 199.283 937.621 Q199.283 946.348 196.204 950.954 Q193.149 955.537 187.338 955.537 Q181.528 955.537 178.45 950.954 Q175.394 946.348 175.394 937.621 Q175.394 928.871 178.45 924.287 Q181.528 919.681 187.338 919.681 Z" fill="#000000" fill-rule="evenodd" fill-opacity="1" /><path clip-path="url(#clip330)" d="M217.5 923.385 Q213.889 923.385 212.061 926.95 Q210.255 930.491 210.255 937.621 Q210.255 944.727 212.061 948.292 Q213.889 951.834 217.5 951.834 Q221.135 951.834 222.94 948.292 Q224.769 944.727 224.769 937.621 Q224.769 930.491 222.94 926.95 Q221.135 923.385 217.5 923.385 M217.5 919.681 Q223.31 919.681 226.366 924.287 Q229.445 928.871 229.445 937.621 Q229.445 946.348 226.366 950.954 Q223.31 955.537 217.5 955.537 Q211.69 955.537 208.612 950.954 Q205.556 946.348 205.556 937.621 Q205.556 928.871 208.612 924.287 Q211.69 919.681 217.5 919.681 Z" fill="#000000" fill-rule="evenodd" fill-opacity="1" /><path clip-path="url(#clip330)" d="M131.181 711.827 Q134.538 712.545 136.413 714.813 Q138.311 717.082 138.311 720.415 Q138.311 725.531 134.792 728.332 Q131.274 731.133 124.793 731.133 Q122.617 731.133 120.302 730.693 Q118.01 730.276 115.556 729.42 L115.556 724.906 Q117.501 726.04 119.816 726.619 Q122.13 727.197 124.654 727.197 Q129.052 727.197 131.343 725.461 Q133.658 723.725 133.658 720.415 Q133.658 717.359 131.505 715.646 Q129.376 713.91 125.556 713.91 L121.529 713.91 L121.529 710.068 L125.742 710.068 Q129.191 710.068 131.019 708.702 Q132.848 707.313 132.848 704.721 Q132.848 702.059 130.95 700.647 Q129.075 699.211 125.556 699.211 Q123.635 699.211 121.436 699.628 Q119.237 700.045 116.598 700.924 L116.598 696.758 Q119.26 696.017 121.575 695.647 Q123.913 695.276 125.973 695.276 Q131.297 695.276 134.399 697.707 Q137.501 700.114 137.501 704.235 Q137.501 707.105 135.857 709.096 Q134.214 711.063 131.181 711.827 Z" fill="#000000" fill-rule="evenodd" fill-opacity="1" /><path clip-path="url(#clip330)" d="M157.177 698.98 Q153.566 698.98 151.737 702.545 Q149.931 706.086 149.931 713.216 Q149.931 720.322 151.737 723.887 Q153.566 727.429 157.177 727.429 Q160.811 727.429 162.616 723.887 Q164.445 720.322 164.445 713.216 Q164.445 706.086 162.616 702.545 Q160.811 698.98 157.177 698.98 M157.177 695.276 Q162.987 695.276 166.042 699.883 Q169.121 704.466 169.121 713.216 Q169.121 721.943 166.042 726.549 Q162.987 731.133 157.177 731.133 Q151.366 731.133 148.288 726.549 Q145.232 721.943 145.232 713.216 Q145.232 704.466 148.288 699.883 Q151.366 695.276 157.177 695.276 Z" fill="#000000" fill-rule="evenodd" fill-opacity="1" /><path clip-path="url(#clip330)" d="M187.338 698.98 Q183.727 698.98 181.899 702.545 Q180.093 706.086 180.093 713.216 Q180.093 720.322 181.899 723.887 Q183.727 727.429 187.338 727.429 Q190.973 727.429 192.778 723.887 Q194.607 720.322 194.607 713.216 Q194.607 706.086 192.778 702.545 Q190.973 698.98 187.338 698.98 M187.338 695.276 Q193.149 695.276 196.204 699.883 Q199.283 704.466 199.283 713.216 Q199.283 721.943 196.204 726.549 Q193.149 731.133 187.338 731.133 Q181.528 731.133 178.45 726.549 Q175.394 721.943 175.394 713.216 Q175.394 704.466 178.45 699.883 Q181.528 695.276 187.338 695.276 Z" fill="#000000" fill-rule="evenodd" fill-opacity="1" /><path clip-path="url(#clip330)" d="M217.5 698.98 Q213.889 698.98 212.061 702.545 Q210.255 706.086 210.255 713.216 Q210.255 720.322 212.061 723.887 Q213.889 727.429 217.5 727.429 Q221.135 727.429 222.94 723.887 Q224.769 720.322 224.769 713.216 Q224.769 706.086 222.94 702.545 Q221.135 698.98 217.5 698.98 M217.5 695.276 Q223.31 695.276 226.366 699.883 Q229.445 704.466 229.445 713.216 Q229.445 721.943 226.366 726.549 Q223.31 731.133 217.5 731.133 Q211.69 731.133 208.612 726.549 Q205.556 721.943 205.556 713.216 Q205.556 704.466 208.612 699.883 Q211.69 695.276 217.5 695.276 Z" fill="#000000" fill-rule="evenodd" fill-opacity="1" /><path clip-path="url(#clip330)" d="M129.862 475.57 L118.056 494.019 L129.862 494.019 L129.862 475.57 M128.635 471.496 L134.515 471.496 L134.515 494.019 L139.445 494.019 L139.445 497.908 L134.515 497.908 L134.515 506.056 L129.862 506.056 L129.862 497.908 L114.26 497.908 L114.26 493.394 L128.635 471.496 Z" fill="#000000" fill-rule="evenodd" fill-opacity="1" /><path clip-path="url(#clip330)" d="M157.177 474.575 Q153.566 474.575 151.737 478.14 Q149.931 481.682 149.931 488.811 Q149.931 495.918 151.737 499.482 Q153.566 503.024 157.177 503.024 Q160.811 503.024 162.616 499.482 Q164.445 495.918 164.445 488.811 Q164.445 481.682 162.616 478.14 Q160.811 474.575 157.177 474.575 M157.177 470.871 Q162.987 470.871 166.042 475.478 Q169.121 480.061 169.121 488.811 Q169.121 497.538 166.042 502.144 Q162.987 506.728 157.177 506.728 Q151.366 506.728 148.288 502.144 Q145.232 497.538 145.232 488.811 Q145.232 480.061 148.288 475.478 Q151.366 470.871 157.177 470.871 Z" fill="#000000" fill-rule="evenodd" fill-opacity="1" /><path clip-path="url(#clip330)" d="M187.338 474.575 Q183.727 474.575 181.899 478.14 Q180.093 481.682 180.093 488.811 Q180.093 495.918 181.899 499.482 Q183.727 503.024 187.338 503.024 Q190.973 503.024 192.778 499.482 Q194.607 495.918 194.607 488.811 Q194.607 481.682 192.778 478.14 Q190.973 474.575 187.338 474.575 M187.338 470.871 Q193.149 470.871 196.204 475.478 Q199.283 480.061 199.283 488.811 Q199.283 497.538 196.204 502.144 Q193.149 506.728 187.338 506.728 Q181.528 506.728 178.45 502.144 Q175.394 497.538 175.394 488.811 Q175.394 480.061 178.45 475.478 Q181.528 470.871 187.338 470.871 Z" fill="#000000" fill-rule="evenodd" fill-opacity="1" /><path clip-path="url(#clip330)" d="M217.5 474.575 Q213.889 474.575 212.061 478.14 Q210.255 481.682 210.255 488.811 Q210.255 495.918 212.061 499.482 Q213.889 503.024 217.5 503.024 Q221.135 503.024 222.94 499.482 Q224.769 495.918 224.769 488.811 Q224.769 481.682 222.94 478.14 Q221.135 474.575 217.5 474.575 M217.5 470.871 Q223.31 470.871 226.366 475.478 Q229.445 480.061 229.445 488.811 Q229.445 497.538 226.366 502.144 Q223.31 506.728 217.5 506.728 Q211.69 506.728 208.612 502.144 Q205.556 497.538 205.556 488.811 Q205.556 480.061 208.612 475.478 Q211.69 470.871 217.5 470.871 Z" fill="#000000" fill-rule="evenodd" fill-opacity="1" /><path clip-path="url(#clip330)" d="M117.061 247.092 L135.417 247.092 L135.417 251.027 L121.343 251.027 L121.343 259.499 Q122.362 259.152 123.38 258.99 Q124.399 258.804 125.418 258.804 Q131.205 258.804 134.584 261.976 Q137.964 265.147 137.964 270.564 Q137.964 276.142 134.492 279.244 Q131.019 282.323 124.7 282.323 Q122.524 282.323 120.255 281.953 Q118.01 281.582 115.603 280.841 L115.603 276.142 Q117.686 277.277 119.908 277.832 Q122.13 278.388 124.607 278.388 Q128.612 278.388 130.95 276.281 Q133.288 274.175 133.288 270.564 Q133.288 266.953 130.95 264.846 Q128.612 262.74 124.607 262.74 Q122.732 262.74 120.857 263.156 Q119.006 263.573 117.061 264.453 L117.061 247.092 Z" fill="#000000" fill-rule="evenodd" fill-opacity="1" /><path clip-path="url(#clip330)" d="M157.177 250.17 Q153.566 250.17 151.737 253.735 Q149.931 257.277 149.931 264.406 Q149.931 271.513 151.737 275.078 Q153.566 278.619 157.177 278.619 Q160.811 278.619 162.616 275.078 Q164.445 271.513 164.445 264.406 Q164.445 257.277 162.616 253.735 Q160.811 250.17 157.177 250.17 M157.177 246.467 Q162.987 246.467 166.042 251.073 Q169.121 255.656 169.121 264.406 Q169.121 273.133 166.042 277.74 Q162.987 282.323 157.177 282.323 Q151.366 282.323 148.288 277.74 Q145.232 273.133 145.232 264.406 Q145.232 255.656 148.288 251.073 Q151.366 246.467 157.177 246.467 Z" fill="#000000" fill-rule="evenodd" fill-opacity="1" /><path clip-path="url(#clip330)" d="M187.338 250.17 Q183.727 250.17 181.899 253.735 Q180.093 257.277 180.093 264.406 Q180.093 271.513 181.899 275.078 Q183.727 278.619 187.338 278.619 Q190.973 278.619 192.778 275.078 Q194.607 271.513 194.607 264.406 Q194.607 257.277 192.778 253.735 Q190.973 250.17 187.338 250.17 M187.338 246.467 Q193.149 246.467 196.204 251.073 Q199.283 255.656 199.283 264.406 Q199.283 273.133 196.204 277.74 Q193.149 282.323 187.338 282.323 Q181.528 282.323 178.45 277.74 Q175.394 273.133 175.394 264.406 Q175.394 255.656 178.45 251.073 Q181.528 246.467 187.338 246.467 Z" fill="#000000" fill-rule="evenodd" fill-opacity="1" /><path clip-path="url(#clip330)" d="M217.5 250.17 Q213.889 250.17 212.061 253.735 Q210.255 257.277 210.255 264.406 Q210.255 271.513 212.061 275.078 Q213.889 278.619 217.5 278.619 Q221.135 278.619 222.94 275.078 Q224.769 271.513 224.769 264.406 Q224.769 257.277 222.94 253.735 Q221.135 250.17 217.5 250.17 M217.5 246.467 Q223.31 246.467 226.366 251.073 Q229.445 255.656 229.445 264.406 Q229.445 273.133 226.366 277.74 Q223.31 282.323 217.5 282.323 Q211.69 282.323 208.612 277.74 Q205.556 273.133 205.556 264.406 Q205.556 255.656 208.612 251.073 Q211.69 246.467 217.5 246.467 Z" fill="#000000" fill-rule="evenodd" fill-opacity="1" /><path clip-path="url(#clip330)" d="M21.7677 838.208 L39.6235 838.208 L39.6235 830.124 Q39.6235 825.636 37.3 823.185 Q34.9765 820.735 30.6797 820.735 Q26.4147 820.735 24.0912 823.185 Q21.7677 825.636 21.7677 830.124 L21.7677 838.208 M16.4842 844.638 L16.4842 830.124 Q16.4842 822.135 20.1126 818.061 Q23.7092 813.955 30.6797 813.955 Q37.7138 813.955 41.3104 818.061 Q44.907 822.135 44.907 830.124 L44.907 838.208 L64.0042 838.208 L64.0042 844.638 L16.4842 844.638 Z" fill="#000000" fill-rule="evenodd" fill-opacity="1" /><path clip-path="url(#clip330)" d="M14.479 806.125 L14.479 792.63 L19.0304 792.63 L19.0304 800.269 L68.0464 800.269 L68.0464 792.63 L72.5979 792.63 L72.5979 806.125 L14.479 806.125 Z" fill="#000000" fill-rule="evenodd" fill-opacity="1" /><path clip-path="url(#clip330)" d="M16.4842 784.132 L16.4842 777.639 L56.6518 767.645 L16.4842 757.682 L16.4842 750.457 L56.6518 740.463 L16.4842 730.501 L16.4842 723.976 L64.0042 735.912 L64.0042 743.996 L22.7544 754.022 L64.0042 764.143 L64.0042 772.228 L16.4842 784.132 Z" fill="#000000" fill-rule="evenodd" fill-opacity="1" /><path clip-path="url(#clip330)" d="M14.479 702.014 L72.5979 702.014 L72.5979 715.509 L68.0464 715.509 L68.0464 707.902 L19.0304 707.902 L19.0304 715.509 L14.479 715.509 L14.479 702.014 Z" fill="#000000" fill-rule="evenodd" fill-opacity="1" /><path clip-path="url(#clip330)" d="M1135.88 14.0809 L1135.88 22.0612 Q1131.23 19.8332 1127.09 18.7395 Q1122.96 17.6457 1119.11 17.6457 Q1112.43 17.6457 1108.78 20.2383 Q1105.18 22.8309 1105.18 27.611 Q1105.18 31.6214 1107.57 33.6873 Q1110 35.7128 1116.72 36.9686 L1121.66 37.9813 Q1130.82 39.7232 1135.15 44.1387 Q1139.53 48.5136 1139.53 55.8863 Q1139.53 64.6767 1133.62 69.2137 Q1127.74 73.7508 1116.36 73.7508 Q1112.06 73.7508 1107.2 72.7785 Q1102.38 71.8063 1097.2 69.9024 L1097.2 61.4765 Q1102.18 64.2716 1106.96 65.6895 Q1111.74 67.1073 1116.36 67.1073 Q1123.37 67.1073 1127.17 64.3527 Q1130.98 61.598 1130.98 56.4939 Q1130.98 52.0379 1128.23 49.5264 Q1125.51 47.0148 1119.27 45.759 L1114.29 44.7868 Q1105.14 42.9639 1101.05 39.075 Q1096.95 35.1862 1096.95 28.2591 Q1096.95 20.2383 1102.59 15.6203 Q1108.26 11.0023 1118.18 11.0023 Q1122.43 11.0023 1126.85 11.7719 Q1131.27 12.5416 1135.88 14.0809 Z" fill="#000000" fill-rule="evenodd" fill-opacity="1" /><path clip-path="url(#clip330)" d="M1159.34 14.324 L1159.34 27.2059 L1174.69 27.2059 L1174.69 32.9987 L1159.34 32.9987 L1159.34 57.6282 Q1159.34 63.1779 1160.84 64.7578 Q1162.38 66.3376 1167.04 66.3376 L1174.69 66.3376 L1174.69 72.576 L1167.04 72.576 Q1158.41 72.576 1155.13 69.3758 Q1151.84 66.1351 1151.84 57.6282 L1151.84 32.9987 L1146.38 32.9987 L1146.38 27.2059 L1151.84 27.2059 L1151.84 14.324 L1159.34 14.324 Z" fill="#000000" fill-rule="evenodd" fill-opacity="1" /><path clip-path="url(#clip330)" d="M1202.08 32.4315 Q1196.08 32.4315 1192.6 37.1306 Q1189.11 41.7891 1189.11 49.9314 Q1189.11 58.0738 1192.56 62.7728 Q1196.04 67.4314 1202.08 67.4314 Q1208.03 67.4314 1211.51 62.7323 Q1215 58.0333 1215 49.9314 Q1215 41.8701 1211.51 37.1711 Q1208.03 32.4315 1202.08 32.4315 M1202.08 26.1121 Q1211.8 26.1121 1217.35 32.4315 Q1222.9 38.7509 1222.9 49.9314 Q1222.9 61.0714 1217.35 67.4314 Q1211.8 73.7508 1202.08 73.7508 Q1192.31 73.7508 1186.76 67.4314 Q1181.25 61.0714 1181.25 49.9314 Q1181.25 38.7509 1186.76 32.4315 Q1192.31 26.1121 1202.08 26.1121 Z" fill="#000000" fill-rule="evenodd" fill-opacity="1" /><path clip-path="url(#clip330)" d="M1267.9 28.9478 L1267.9 35.9153 Q1264.74 34.1734 1261.54 33.3227 Q1258.38 32.4315 1255.14 32.4315 Q1247.89 32.4315 1243.88 37.0496 Q1239.87 41.6271 1239.87 49.9314 Q1239.87 58.2358 1243.88 62.8538 Q1247.89 67.4314 1255.14 67.4314 Q1258.38 67.4314 1261.54 66.5807 Q1264.74 65.6895 1267.9 63.9476 L1267.9 70.8341 Q1264.78 72.2924 1261.42 73.0216 Q1258.1 73.7508 1254.33 73.7508 Q1244.08 73.7508 1238.05 67.3098 Q1232.01 60.8689 1232.01 49.9314 Q1232.01 38.832 1238.09 32.472 Q1244.2 26.1121 1254.82 26.1121 Q1258.26 26.1121 1261.54 26.8413 Q1264.82 27.5299 1267.9 28.9478 Z" fill="#000000" fill-rule="evenodd" fill-opacity="1" /><path clip-path="url(#clip330)" d="M1280.58 9.54393 L1288.08 9.54393 L1288.08 46.7717 L1310.32 27.2059 L1319.84 27.2059 L1295.77 48.4326 L1320.85 72.576 L1311.13 72.576 L1288.08 50.4176 L1288.08 72.576 L1280.58 72.576 L1280.58 9.54393 Z" fill="#000000" fill-rule="evenodd" fill-opacity="1" /><path clip-path="url(#clip330)" d="M1366.62 45.1919 L1366.62 72.576 L1359.17 72.576 L1359.17 45.4349 Q1359.17 38.994 1356.66 35.7938 Q1354.15 32.5936 1349.12 32.5936 Q1343.09 32.5936 1339.6 36.4419 Q1336.12 40.2903 1336.12 46.9338 L1336.12 72.576 L1328.63 72.576 L1328.63 9.54393 L1336.12 9.54393 L1336.12 34.2544 Q1338.79 30.163 1342.4 28.1376 Q1346.04 26.1121 1350.78 26.1121 Q1358.6 26.1121 1362.61 30.9732 Q1366.62 35.7938 1366.62 45.1919 Z" fill="#000000" fill-rule="evenodd" fill-opacity="1" /><path clip-path="url(#clip330)" d="M1399.07 32.4315 Q1393.08 32.4315 1389.59 37.1306 Q1386.11 41.7891 1386.11 49.9314 Q1386.11 58.0738 1389.55 62.7728 Q1393.04 67.4314 1399.07 67.4314 Q1405.03 67.4314 1408.51 62.7323 Q1411.99 58.0333 1411.99 49.9314 Q1411.99 41.8701 1408.51 37.1711 Q1405.03 32.4315 1399.07 32.4315 M1399.07 26.1121 Q1408.79 26.1121 1414.34 32.4315 Q1419.89 38.7509 1419.89 49.9314 Q1419.89 61.0714 1414.34 67.4314 Q1408.79 73.7508 1399.07 73.7508 Q1389.31 73.7508 1383.76 67.4314 Q1378.25 61.0714 1378.25 49.9314 Q1378.25 38.7509 1383.76 32.4315 Q1389.31 26.1121 1399.07 26.1121 Z" fill="#000000" fill-rule="evenodd" fill-opacity="1" /><path clip-path="url(#clip330)" d="M1432.25 9.54393 L1439.7 9.54393 L1439.7 72.576 L1432.25 72.576 L1432.25 9.54393 Z" fill="#000000" fill-rule="evenodd" fill-opacity="1" /><path clip-path="url(#clip330)" d="M1490.62 35.9153 Q1493.42 30.8922 1497.31 28.5022 Q1501.19 26.1121 1506.46 26.1121 Q1513.55 26.1121 1517.4 31.0947 Q1521.25 36.0368 1521.25 45.1919 L1521.25 72.576 L1513.75 72.576 L1513.75 45.4349 Q1513.75 38.913 1511.44 35.7533 Q1509.13 32.5936 1504.39 32.5936 Q1498.6 32.5936 1495.24 36.4419 Q1491.88 40.2903 1491.88 46.9338 L1491.88 72.576 L1484.38 72.576 L1484.38 45.4349 Q1484.38 38.8725 1482.07 35.7533 Q1479.76 32.5936 1474.94 32.5936 Q1469.23 32.5936 1465.87 36.4824 Q1462.51 40.3308 1462.51 46.9338 L1462.51 72.576 L1455.01 72.576 L1455.01 27.2059 L1462.51 27.2059 L1462.51 34.2544 Q1465.06 30.082 1468.62 28.0971 Q1472.19 26.1121 1477.09 26.1121 Q1482.03 26.1121 1485.48 28.6237 Q1488.96 31.1352 1490.62 35.9153 Z" fill="#000000" fill-rule="evenodd" fill-opacity="1" /><polyline clip-path="url(#clip332)" style="stroke:#009af9; stroke-linecap:butt; stroke-linejoin:round; stroke-width:4; stroke-opacity:1; fill:none" points="
  324.52,1386.4 329.327,1386.4 334.135,1386.4 338.942,1386.4 343.75,1386.4 354.863,1386.4 365.977,1386.4 377.09,1381.8 388.203,1363.02 410.43,1324.51 
  432.657,1284.92 477.11,1203.29 521.564,1119.57 574.993,1017.84 628.422,916.583 673.596,832.481 718.77,750.657 767.841,665.239 816.912,584.293 862.152,514.327 
  907.391,449.421 955.893,386.042 1004.39,329.641 1060.59,273.672 1116.78,228.384 1166.72,197.527 1216.66,175.795 1260.45,164.403 1304.24,160.256 1351.99,164.023 
  1399.73,176.402 1447.76,197.443 1495.79,226.924 1548.89,269.047 1601.99,320.762 1652.51,378.392 1703.04,443.694 1755.57,519.066 1808.11,601.292 1852.33,675.189 
  1896.55,752.773 2004.53,953.855 2106.04,1150.74 2146.69,1229.58 2187.35,1307.39 2207.67,1345.68 2228,1383.42 2248.33,1386.4 2268.65,1386.4 2274.91,1386.4 
  2281.17,1386.4 2287.42,1386.4 2293.68,1386.4 
  "/>
<polyline clip-path="url(#clip332)" style="stroke:#e26f46; stroke-linecap:butt; stroke-linejoin:round; stroke-width:4; stroke-opacity:1; fill:none" points="
  324.52,1386.4 343.75,1386.4 521.564,1386.4 628.422,1386.4 718.77,1386.4 767.841,1386.4 816.912,1386.4 862.152,1386.4 907.391,1386.4 919.517,1386.4 
  931.642,1386.4 937.705,1386.4 943.767,1386.4 949.83,1386.38 955.893,1380.12 958.924,1370.43 961.955,1357.23 964.987,1341.71 968.018,1324.81 974.081,1289.29 
  980.143,1253.74 992.269,1187.04 1004.39,1127.89 1018.44,1068.19 1032.49,1016.41 1046.54,971.088 1060.59,931.04 1074.64,895.378 1088.68,863.425 1102.73,834.661 
  1116.78,808.684 1141.75,768.446 1166.72,734.738 1191.69,706.663 1216.66,683.589 1238.55,667.111 1260.45,653.899 1282.35,643.777 1304.24,636.608 1328.11,632.031 
  1351.99,630.727 1375.86,632.617 1399.73,637.642 1423.74,645.82 1447.76,657.111 1471.77,671.514 1495.79,689.054 1522.34,712.157 1548.89,739.272 1575.44,770.584 
  1601.99,806.378 1627.25,844.991 1652.51,888.615 1677.78,938.103 1703.04,994.785 1716.17,1027.76 1729.3,1063.65 1742.44,1103.01 1755.57,1146.53 1768.71,1195.06 
  1781.84,1249.31 1788.41,1278.56 1794.97,1308.76 1801.54,1338.73 1808.11,1365.61 1813.63,1381.36 1819.16,1386.35 1824.69,1386.4 1830.22,1386.4 1841.27,1386.4 
  1852.33,1386.4 1874.44,1386.4 1896.55,1386.4 2004.53,1386.4 2106.04,1386.4 2268.65,1386.4 2293.68,1386.4 
  "/>
<path clip-path="url(#clip330)" d="
M1880.33 322.316 L2283.18 322.316 L2283.18 166.796 L1880.33 166.796  Z
  " fill="#ffffff" fill-rule="evenodd" fill-opacity="1"/>
<polyline clip-path="url(#clip330)" style="stroke:#000000; stroke-linecap:butt; stroke-linejoin:round; stroke-width:4; stroke-opacity:1; fill:none" points="
  1880.33,322.316 2283.18,322.316 2283.18,166.796 1880.33,166.796 1880.33,322.316 
  "/>
<polyline clip-path="url(#clip330)" style="stroke:#009af9; stroke-linecap:butt; stroke-linejoin:round; stroke-width:4; stroke-opacity:1; fill:none" points="
  1904.33,218.636 2048.33,218.636 
  "/>
<path clip-path="url(#clip330)" d="M2079.44 201.356 L2084.11 201.356 L2084.11 233.508 Q2084.11 239.758 2081.73 242.582 Q2079.37 245.406 2074.11 245.406 L2072.33 245.406 L2072.33 241.471 L2073.79 241.471 Q2076.89 241.471 2078.17 239.735 Q2079.44 237.999 2079.44 233.508 L2079.44 201.356 Z" fill="#000000" fill-rule="evenodd" fill-opacity="1" /><path clip-path="url(#clip330)" d="M2092.8 225.684 L2092.8 209.99 L2097.05 209.99 L2097.05 225.522 Q2097.05 229.203 2098.49 231.055 Q2099.92 232.883 2102.8 232.883 Q2106.24 232.883 2108.24 230.684 Q2110.25 228.485 2110.25 224.689 L2110.25 209.99 L2114.51 209.99 L2114.51 235.916 L2110.25 235.916 L2110.25 231.934 Q2108.7 234.295 2106.64 235.453 Q2104.6 236.587 2101.89 236.587 Q2097.42 236.587 2095.11 233.809 Q2092.8 231.031 2092.8 225.684 M2103.51 209.365 L2103.51 209.365 Z" fill="#000000" fill-rule="evenodd" fill-opacity="1" /><path clip-path="url(#clip330)" d="M2144.83 220.268 L2144.83 235.916 L2140.57 235.916 L2140.57 220.407 Q2140.57 216.726 2139.14 214.897 Q2137.7 213.069 2134.83 213.069 Q2131.38 213.069 2129.39 215.268 Q2127.4 217.467 2127.4 221.263 L2127.4 235.916 L2123.12 235.916 L2123.12 209.99 L2127.4 209.99 L2127.4 214.018 Q2128.93 211.68 2130.99 210.522 Q2133.07 209.365 2135.78 209.365 Q2140.25 209.365 2142.54 212.143 Q2144.83 214.897 2144.83 220.268 Z" fill="#000000" fill-rule="evenodd" fill-opacity="1" /><path clip-path="url(#clip330)" d="M2153.33 209.99 L2157.59 209.99 L2157.59 235.916 L2153.33 235.916 L2153.33 209.99 M2153.33 199.897 L2157.59 199.897 L2157.59 205.291 L2153.33 205.291 L2153.33 199.897 Z" fill="#000000" fill-rule="evenodd" fill-opacity="1" /><polyline clip-path="url(#clip330)" style="stroke:#e26f46; stroke-linecap:butt; stroke-linejoin:round; stroke-width:4; stroke-opacity:1; fill:none" points="
  1904.33,270.476 2048.33,270.476 
  "/>
<path clip-path="url(#clip330)" d="M2079.44 253.196 L2084.11 253.196 L2084.11 285.348 Q2084.11 291.598 2081.73 294.422 Q2079.37 297.246 2074.11 297.246 L2072.33 297.246 L2072.33 293.311 L2073.79 293.311 Q2076.89 293.311 2078.17 291.575 Q2079.44 289.839 2079.44 285.348 L2079.44 253.196 Z" fill="#000000" fill-rule="evenodd" fill-opacity="1" /><path clip-path="url(#clip330)" d="M2105.02 274.723 Q2099.86 274.723 2097.86 275.904 Q2095.87 277.084 2095.87 279.932 Q2095.87 282.2 2097.36 283.543 Q2098.86 284.862 2101.43 284.862 Q2104.97 284.862 2107.1 282.362 Q2109.25 279.839 2109.25 275.672 L2109.25 274.723 L2105.02 274.723 M2113.51 272.964 L2113.51 287.756 L2109.25 287.756 L2109.25 283.821 Q2107.8 286.182 2105.62 287.316 Q2103.44 288.427 2100.3 288.427 Q2096.31 288.427 2093.95 286.205 Q2091.61 283.959 2091.61 280.209 Q2091.61 275.834 2094.53 273.612 Q2097.47 271.39 2103.28 271.39 L2109.25 271.39 L2109.25 270.973 Q2109.25 268.034 2107.31 266.436 Q2105.39 264.816 2101.89 264.816 Q2099.67 264.816 2097.56 265.348 Q2095.46 265.881 2093.51 266.946 L2093.51 263.01 Q2095.85 262.108 2098.05 261.668 Q2100.25 261.205 2102.33 261.205 Q2107.96 261.205 2110.74 264.122 Q2113.51 267.038 2113.51 272.964 Z" fill="#000000" fill-rule="evenodd" fill-opacity="1" /><path clip-path="url(#clip330)" d="M2143.84 272.108 L2143.84 287.756 L2139.58 287.756 L2139.58 272.247 Q2139.58 268.566 2138.14 266.737 Q2136.71 264.909 2133.84 264.909 Q2130.39 264.909 2128.4 267.108 Q2126.41 269.307 2126.41 273.103 L2126.41 287.756 L2122.12 287.756 L2122.12 261.83 L2126.41 261.83 L2126.41 265.858 Q2127.93 263.52 2129.99 262.362 Q2132.08 261.205 2134.79 261.205 Q2139.25 261.205 2141.55 263.983 Q2143.84 266.737 2143.84 272.108 Z" fill="#000000" fill-rule="evenodd" fill-opacity="1" /><path clip-path="url(#clip330)" d="M2151.89 277.524 L2151.89 261.83 L2156.15 261.83 L2156.15 277.362 Q2156.15 281.043 2157.59 282.895 Q2159.02 284.723 2161.89 284.723 Q2165.34 284.723 2167.33 282.524 Q2169.35 280.325 2169.35 276.529 L2169.35 261.83 L2173.61 261.83 L2173.61 287.756 L2169.35 287.756 L2169.35 283.774 Q2167.79 286.135 2165.73 287.293 Q2163.7 288.427 2160.99 288.427 Q2156.52 288.427 2154.21 285.649 Q2151.89 282.871 2151.89 277.524 M2162.61 261.205 L2162.61 261.205 Z" fill="#000000" fill-rule="evenodd" fill-opacity="1" /><path clip-path="url(#clip330)" d="M2194.16 274.723 Q2189 274.723 2187.01 275.904 Q2185.02 277.084 2185.02 279.932 Q2185.02 282.2 2186.5 283.543 Q2188 284.862 2190.57 284.862 Q2194.11 284.862 2196.24 282.362 Q2198.4 279.839 2198.4 275.672 L2198.4 274.723 L2194.16 274.723 M2202.66 272.964 L2202.66 287.756 L2198.4 287.756 L2198.4 283.821 Q2196.94 286.182 2194.76 287.316 Q2192.59 288.427 2189.44 288.427 Q2185.46 288.427 2183.1 286.205 Q2180.76 283.959 2180.76 280.209 Q2180.76 275.834 2183.67 273.612 Q2186.61 271.39 2192.42 271.39 L2198.4 271.39 L2198.4 270.973 Q2198.4 268.034 2196.45 266.436 Q2194.53 264.816 2191.04 264.816 Q2188.81 264.816 2186.71 265.348 Q2184.6 265.881 2182.66 266.946 L2182.66 263.01 Q2184.99 262.108 2187.19 261.668 Q2189.39 261.205 2191.48 261.205 Q2197.1 261.205 2199.88 264.122 Q2202.66 267.038 2202.66 272.964 Z" fill="#000000" fill-rule="evenodd" fill-opacity="1" /><path clip-path="url(#clip330)" d="M2226.45 265.811 Q2225.73 265.395 2224.88 265.21 Q2224.04 265.001 2223.03 265.001 Q2219.42 265.001 2217.47 267.362 Q2215.55 269.7 2215.55 274.098 L2215.55 287.756 L2211.27 287.756 L2211.27 261.83 L2215.55 261.83 L2215.55 265.858 Q2216.89 263.497 2219.04 262.362 Q2221.2 261.205 2224.28 261.205 Q2224.72 261.205 2225.25 261.274 Q2225.78 261.321 2226.43 261.436 L2226.45 265.811 Z" fill="#000000" fill-rule="evenodd" fill-opacity="1" /><path clip-path="url(#clip330)" d="M2230.92 261.83 L2235.18 261.83 L2235.18 287.756 L2230.92 287.756 L2230.92 261.83 M2230.92 251.737 L2235.18 251.737 L2235.18 257.131 L2230.92 257.131 L2230.92 251.737 Z" fill="#000000" fill-rule="evenodd" fill-opacity="1" /></svg>
